# xmcd
#
# Track frame offsets: 
#        225
#        14313
#        32219
#        43410
#        56170
#        71342
#        90867
#        104075
#        120529
#        134118
#        150307
#        166988
#        183155
#        201602
#        216992
#        228490
#
# Disc length: 3262 seconds
#
# Revision: 1
# Processed by: cddbd v1.5.2PL0 Copyright (c) Steve Scherf et al.
# Submitted via: ExactAudioCopyFreeDBPlugin 1.0
#
DISCID=e90cbb10
DTITLE=Gudrun Lange and Kactus - Deutscher Supercountry
DYEAR=1900
DGENRE=country
TTITLE0=Ein duft von Heu
TTITLE1=Immer unterwegs
TTITLE2=Bärenstarke Cowboys
TTITLE3=Ich brauche einen guten Freund
TTITLE4=Nachts in den Strassen von London
TTITLE5=Komm herein
TTITLE6=Drei ganze Wochen frei
TTITLE7=Feierabend Wochenende
TTITLE8=Love gonna live here
TTITLE9=Me and Bobby McGee
TTITLE10=Lone Star Sate of Mind
TTITLE11=To know him is to love him
TTITLE12=Telling me lies
TTITLE13=Eighteen Wheels and a doozen Roses
TTITLE14=I'm moving on
TTITLE15=Die Lieder bleiben
EXTD=
EXTT0=
EXTT1=
EXTT2=
EXTT3=
EXTT4=
EXTT5=
EXTT6=
EXTT7=
EXTT8=
EXTT9=
EXTT10=
EXTT11=
EXTT12=
EXTT13=
EXTT14=
EXTT15=
PLAYORDER=
